<svg id="Layer_1" data-name="Layer 1" xmlns="http://www.w3.org/2000/svg" viewBox="0 0 428.35 248.72"><title>Mother Dairy logo - Brandlogos.net</title><path d="M169.82,302.4c59.88-25.63,135.63-42.76,214.47-42.76,80,0,153.35,16.47,213.88,42.16L549.89,508.36H216.26Z" transform="translate(-169.82 -259.64)" style="fill:#00b8f2"/><path d="M188.14,313.4l40.91,178.44H539.49L579.81,313.4c-56.19-22.6-123.44-36.68-195.56-36.68-72.67,0-139.91,14.09-196.11,36.68" transform="translate(-169.82 -259.64)" style="fill:#fff"/><path d="M197.3,318.92c56.24-22.6,114.88-34.84,187-34.84s130.75,11,187,33L533.42,483.92H234.58Z" transform="translate(-169.82 -259.64)" style="fill:#00b8f2"/><path d="M311.58,455.2c8.56-1.84,22-8.56,22-25.68,0-16.52-12.24-20.76-22-22v3.68c10.4,3.68,12.84,15.28,12.84,20.76,0,11.6-4.88,18.32-12.84,20.76Zm-22-6.12c0,6.12-4.88,3-4.88,6.12,0,1.24,1.84.6,3,.6H307.9c1.24,0,2.44-.6,3.68-.6v-2.44a17.44,17.44,0,0,1-5.52.6c-2.44,0-7.32-.6-7.32-4.88v-32.4c0-4.28,0-6.12,4.88-6.12a29.68,29.68,0,0,1,8,1.24v-3.68a38.55,38.55,0,0,0-8-.6c-3,0-6.72.6-10.4.6a62.34,62.34,0,0,1-9.16-.6,1.34,1.34,0,0,0-1.24,1.24c0,3,6.72.6,6.72,7.32v33.6Z" transform="translate(-169.82 -259.64)" style="fill:#fff"/><path d="M237.62,364.76c0-.6-.6-3,0-3.68.6,0,1.84,1.24,2.44,1.84l25,30c1.24.6,1.24,2.44,2.44,1.84.6,0,.6-1.24.6-2.44l7.32-36.68c.6-2.44,1.24-4.28,1.24-4.28.6-.6,1.24.6,2.44,2.44l7.32,25c2.44,9.16-4.28,8-3.68,11,.6,1.24,2.44,0,4.28,0s3-.6,8.56-1.84a28.53,28.53,0,0,0,7.32-1.24c3-.6,4.28-1.24,3.68-3-.6-2.44-7.32,3-11-7.32l-10.4-37.88c-3.68-8.56,5.48-8,4.28-10.4,0-1.24,0-1.24-1.84-.6-2.44.6-4.28,1.84-5.48,1.84-1.24.6-2.44.6-4.88,1.19-1.24,0-1.24,1.24-1.24,1.84L267.48,377s-.6,2.44-1.24,2.44L265,378.15l-28.72-33c-1.84-2.44-2.44-1.84-3.68-1.84a41.91,41.91,0,0,1-6.72,2.44,20.06,20.06,0,0,1-4.88.6c0,.6-.6,1.24-.6,1.84,1.24,3.68,8.56-2.44,11.6,11L240.55,394c2.44,8.56-4.88,8-4.28,10.4,0,.6.6,1.19,1.84.6s4.28-1.24,7.32-3a47.46,47.46,0,0,0,8.56-3c2.44-.6,1.84-1.84,1.84-1.84-1.24-3-8.56,5.52-12.24-8.56Z" transform="translate(-169.82 -259.64)" style="fill:#fff"/><path d="M325,383.68a2.35,2.35,0,0,0,1.84-.6c22-1.84,25-20.16,23.84-30-1.84-13.44-12.84-21.4-25.68-20.76v4.28c7.32.6,14,6.72,15.28,20.16,1.84,11.6,0,20.76-12.24,22.6h-3v4.28Zm-25.68-20.76c2.44,13.44,12.24,21.4,25.68,20.76V379.4c-10.4-.6-14.68-12.84-15.28-21.4-1.84-10.4,0-20.16,11.6-21.4a4,4,0,0,1,3.68,0v-4.28h-1.84C306.7,334.8,297.54,346.4,299.34,362.92Z" transform="translate(-169.82 -259.64)" style="fill:#fff"/><path d="M521.18,338.48c1.84.6,3.68,1.24,5.48,1.84,17.72,5.52,15.88,17.12,14.68,20.16-1.84,5.52-4.88,7.32-8,9.16-2.44.6-4.88,1.24-5.48,1.84,0,.6,3.68,14,5.48,25.68a4.08,4.08,0,0,0,3,1.84c.6.6,1.84,0,2.44.6.6,0,.6.6.6,1.84-.6,2.44-6.72,2.44-9.16,1.24-6.72-1.84-7.32-7.32-8.56-12.84l-.6-3V367.25c6.72.6,8.56-3,9.76-6.72,1.84-7.32,0-14.68-8.56-17.12-.6,0-.6-.6-1.24-.6v-4.33ZM494.3,380.64l11-35.44c3-9.16-6.72-9.16-5.52-12.24,0-.6,1.24-.6,1.84-.6,3.68,1.19,4.28,1.84,9.16,3.68a60.52,60.52,0,0,0,10.4,2.44v4.28c-2.44-.6-4.28-.6-5.52,3l-4.88,16.52c-.6,1.84,2.44,3,4.88,3.68a18.45,18.45,0,0,0,5.52,1.24v19.56l-2.44-11.6c-1.24-4.28-1.84-5.52-6.12-6.72-3.68-.6-3.68-.6-4.28,2.44l-4.88,13.44c-1.84,8.56,6.72,7.32,6.12,10.4,0,1.24-1.24,1.24-3,.6-1.24-.6-3.68-1.19-6.72-2.44-4.28-1.24-7.32-1.84-11-3-8.56-1.24-11-2.44-15.88-3-1.84-.6-17.12-3.68-21.4-4.28,0,0-10.4-.6-13.44-1.24a58.74,58.74,0,0,1-9.16-1.24c-1.19,0-1.84,0-1.84-.6.6-2.44,4.88,0,5.52-6.72l1.24-12.24c0-3.68,0-4.28-3-4.28l-17.12-1.84c-3.68,0-3.68.6-3.68,4.28l-1.24,10.4c-.6,9.16,8.56,6.72,8,9.16,0,.6.6,1.24-1.84,1.24-2.44-.6-6.72-.6-10.4-1.24-3,0-12.84,0-15.88-.6h-3c-2.44.6-8.56,0-12.84,0a60.73,60.73,0,0,1-9.76.6c-.6,0-2.44.6-2.44-1.24,0-2.44,8,.6,7.32-8l-.6-31.76c0-3.68-.6-4.28-3.68-3.68l-3-.6c-8,.6-6.72,9.76-9.76,9.76-1.84,0-1.24-1.84-1.24-2.44l1.24-9.76a1.19,1.19,0,0,1,1.24-1.19c6.12,0,10.4.6,19.56,0,10.4,0,12.84-.6,19.56-.6.6,0,.6,1.24.6,1.84l1.24,6.12c0,1.24.6,3.68-1.24,3.68-2.44,0,0-8-8-7.32h-3c-3,0-3.68.6-3.68,4.28l.6,30.56c-.6,7.32,7.32,7.32,11,7.32,4.28,0,10.4,0,10.4-7.32l2.44-30c.6-8-6.72-5.52-6.72-8,0-1.24,2.44-1.24,3.68-1.24,1.84.6,4.28.6,8,1.24h9.16a2.68,2.68,0,0,1,1.84.6c-.6,2.44-5.52,0-6.12,6.72l-.6,10.4c0,2.44,0,3,1.84,3.68l19,1.24c2.44,0,3-1.24,3-3l.6-9.76c.6-8-6.72-5.52-6.72-8,.6-1.24.6-1.24,1.24-1.24,3,.6,5.52.6,9.16,1.24,3.68,0,6.72.6,10.4.6,1.24,0,1.24.6,1.24,1.19,0,2.44-5.52-1.19-5.52,5.52l-2.44,32.4c-.6,4.88,2.44,8,7.32,8.56,5.52.6,8-1.84,8.56-6.72l4.88-30.56c.6-6.12-7.32-4.88-6.72-8,0-.6.6-1.24,1.84-.6,2.44,0,7.32,1.24,18.32,3,4.88.6,11,.6,16.48,1.84,1.24,0,1.24,1.19,1.24,1.84l-1.24,6.12c0,1.19-.6,4.28-1.84,3.68-3-.6,4.28-7.32-10.4-9.76-8-1.84-8-1.24-8.56,3.68L471.15,354c-.6,3-.6,3.68,1.84,4.28l4.28.6c5.48,1.19,8-5.52,9.76-5.52.6,0,1.24,0,1.24,2.44l-3,12.24c0,.6,0,3-1.84,3-2.44-.6,1.24-7.32-6.12-8.56L473,361.23c-3.68,0-3.68.6-4.28,4.88l-1.24,8.56c-1.24,5.48,3,8.56,12.24,10.4C485.74,386.76,491.86,388,494.3,380.64Z" transform="translate(-169.82 -259.64)" style="fill:#fff"/><path d="M454.58,456.4c-10.4,0-12.84-1.24-18.32-8.56-3.68-5.52-7.32-11.6-7.32-11.6a2.3,2.3,0,0,0-.6-1.24v-5.48c7.32-.6,7.32-3.68,7.32-8,0-5.48-2.44-10.4-7.32-11.6v-3c15.28,0,17.12,9.76,17.12,12.84,0,4.88-2.44,7.32-4.88,8.56-1.84,1.84-4.28,2.44-4.28,3s6.12,10.4,12.84,17.72c3.68,5.48,12.24,4.88,15.28,3,1.24-1.24,2.44-2.44,2.44-6.12v-8c0-2.44,0-3-1.19-4.28L455.28,413c-3-4.88-6.72-2.44-6.72-4.88,0-1.24.6-1.24,2.44-1.24a51.59,51.59,0,0,0,7.32.6,64.24,64.24,0,0,0,9.76-.6,1.29,1.29,0,0,1,1.19,1.24c0,1.84-3.68,1.24-3.68,3.68a9.93,9.93,0,0,0,.6,2.44l6.72,12.84c.6,2.44.6,3.68,1.24,3.68s.6-.6,1.84-2.44l6.12-11c1.24-2.44,1.24-3,1.24-3.68,0-4.28-6.72-3-6.72-4.88,0-1.24.6-1.24,1.24-1.24H484c5.52,0,6.72-.6,8.56-.6,1.24,0,1.24.6,1.24,1.24,0,1.84-3,0-7.32,8l-8.56,17.12c-1.24,1.24-1.24,1.24-1.24,4.28v10.4c0,8.56,8.56,3.68,8.56,7.32,0,.6-1.24,1.24-2.44,1.24H454.58ZM428.3,435c-1.24-1.84-2.44-1.84-5.52-1.84-1.84,0-1.84.6-1.84,2.44v12.19c0,7.32,6.72,4.28,6.72,7.32,0,.6-.6.6-2.44.6h-63c-1.19,0-2.44.6-2.44-.6,0-2.44,4.28-1.24,4.28-6.12a22.94,22.94,0,0,0-1.24-4.28c-1.84-4.88-2.44-5.48-4.28-5.48h-6.72V435h4.88c1.24,0,1.84,0,1.84-.6a3.06,3.06,0,0,0-.6-1.84l-4.88-12.24a1.92,1.92,0,0,1-.6-1.24h-.6V410l1.24-1.84c.6-.6,1.24-2.44,1.84-2.44s1.24,0,1.84,2.44l18.32,41c1.24,2.44,3,4.28,5.48,3.68,3.68,0,4.28-2.44,3.68-5.52v-32.4c0-6.12-7.32-4.28-7.32-6.72,0-1.24,1.84-1.24,2.44-1.24,3,0,6.12.6,8.56.6s4.88-.6,9.16-.6c1.84,0,1.84,0,1.84,1.24,0,2.44-4.88,0-4.88,6.12V445.4c0,6.72,4.88,7.32,9.16,7.32,3.68,0,8-.6,8-6.72V416c0-8-7.32-5.52-7.32-8a1.33,1.33,0,0,1,1.19-1.24c3,0,4.88.6,9.16.6,4.88,0,9.16-.6,14-.6v3h-3c-2.44,0-4.28,0-4.28,4.28v13.44c0,1.84,1.84,1.84,4.28,1.84h3V435Zm-76.4,4.23h-6.12c-1.24,0-2.44,0-4.28,4.28a18.12,18.12,0,0,0-1.24,5.52c0,4.88,7.32,3.68,7.32,6.12,0,1.24-2.44.6-3.68.6H331c-.6,0-1.84.6-1.84-.6,0-1.84,3.68-1.24,4.88-5.52L351.8,410v9.16a.58.58,0,0,1-.6.6L346.32,432c0,1.24-.6,1.84-.6,2.44s.6.6,1.84.6h4.28v4.28Z" transform="translate(-169.82 -259.64)" style="fill:#fff"/></svg>